<svg width="16" height="16" viewBox="0 0 16 16" fill="none" xmlns="http://www.w3.org/2000/svg">
<g clip-path="url(#clip0_82_18)">
<rect width="16" height="16" rx="3" fill="#4A4036"/>
<path fill-rule="evenodd" clip-rule="evenodd" d="M10.6667 11.3333V3.49065L11.2587 2.30665C11.3068 2.21034 11.3312 2.10387 11.3297 1.99618C11.3282 1.8885 11.301 1.78274 11.2501 1.68778C11.1993 1.59283 11.1265 1.51144 11.0377 1.45046C10.949 1.38948 10.8469 1.35068 10.74 1.33732L8.10333 1.00799C8.03471 0.999413 7.96529 0.999413 7.89667 1.00799L5.26 1.33732C5.15314 1.35068 5.05104 1.38948 4.96227 1.45046C4.87351 1.51144 4.80066 1.59283 4.74985 1.68778C4.69905 1.78274 4.67175 1.8885 4.67027 1.99618C4.66879 2.10387 4.69316 2.21034 4.74133 2.30665L5.33333 3.49065V11.3333H4.16667C3.70667 11.3333 3.33333 11.7067 3.33333 12.1667V13.3333H2.66667C2.48986 13.3333 2.32029 13.4036 2.19526 13.5286C2.07024 13.6536 2 13.8232 2 14C2 14.1768 2.07024 14.3464 2.19526 14.4714C2.32029 14.5964 2.48986 14.6667 2.66667 14.6667H13.3333C13.5101 14.6667 13.6797 14.5964 13.8047 14.4714C13.9298 14.3464 14 14.1768 14 14C14 13.8232 13.9298 13.6536 13.8047 13.5286C13.6797 13.4036 13.5101 13.3333 13.3333 13.3333H12.6667V12.1667C12.6667 11.7067 12.2933 11.3333 11.8333 11.3333H10.6667ZM8 2.33865L6.35133 2.54465L6.526 2.89465C6.61849 3.07972 6.66665 3.28376 6.66667 3.49065V11.3333H9.33333V3.49065C9.33335 3.28376 9.38151 3.07972 9.474 2.89465L9.64867 2.54465L8 2.33865ZM11.3333 13.3333V12.6667H4.66667V13.3333H11.3333Z" fill="#F7EEE3"/>
</g>
<defs>
<clipPath id="clip0_82_18">
<rect width="16" height="16" rx="3" fill="white"/>
</clipPath>
</defs>
</svg>
