<svg width="35" height="35" viewBox="0 0 35 35" fill="none" xmlns="http://www.w3.org/2000/svg">
<path fill-rule="evenodd" clip-rule="evenodd" d="M23.3333 24.7917V7.63582L24.6283 5.04582C24.7337 4.83512 24.787 4.60222 24.7838 4.36666C24.7805 4.1311 24.7208 3.89976 24.6097 3.69204C24.4986 3.48433 24.3392 3.3063 24.145 3.1729C23.9509 3.03951 23.7275 2.95463 23.4938 2.9254L17.726 2.20499C17.5759 2.18623 17.4241 2.18623 17.274 2.20499L11.5062 2.9254C11.2725 2.95463 11.0491 3.03951 10.855 3.1729C10.6608 3.3063 10.5014 3.48433 10.3903 3.69204C10.2792 3.89976 10.2195 4.1311 10.2162 4.36666C10.213 4.60222 10.2663 4.83512 10.3717 5.04582L11.6667 7.63582V24.7917H9.11458C8.10833 24.7917 7.29167 25.6083 7.29167 26.6146V29.1667H5.83333C5.44656 29.1667 5.07563 29.3203 4.80214 29.5938C4.52865 29.8673 4.375 30.2382 4.375 30.625C4.375 31.0118 4.52865 31.3827 4.80214 31.6562C5.07563 31.9297 5.44656 32.0833 5.83333 32.0833H29.1667C29.5534 32.0833 29.9244 31.9297 30.1979 31.6562C30.4714 31.3827 30.625 31.0118 30.625 30.625C30.625 30.2382 30.4714 29.8673 30.1979 29.5938C29.9244 29.3203 29.5534 29.1667 29.1667 29.1667H27.7083V26.6146C27.7083 25.6083 26.8917 24.7917 25.8854 24.7917H23.3333ZM17.5 5.11582L13.8935 5.56645L14.2756 6.33207C14.478 6.7369 14.5833 7.18325 14.5833 7.63582V24.7917H20.4167V7.63582C20.4167 7.18325 20.522 6.7369 20.7244 6.33207L21.1065 5.56645L17.5 5.11582ZM24.7917 29.1667V27.7083H10.2083V29.1667H24.7917Z" fill="black"/>
</svg>
