<svg width="25" height="25" viewBox="0 0 25 25" fill="none" xmlns="http://www.w3.org/2000/svg">
<g clip-path="url(#clip0_27_29)">
<path fill-rule="evenodd" clip-rule="evenodd" d="M16.3615 13.2365C16.5568 13.0411 16.6665 12.7762 16.6665 12.5C16.6665 12.2238 16.5568 11.9589 16.3615 11.7635L10.4688 5.87083C10.3727 5.77134 10.2578 5.69199 10.1307 5.6374C10.0036 5.5828 9.86691 5.55407 9.7286 5.55287C9.59029 5.55166 9.45313 5.57802 9.32511 5.6304C9.19709 5.68277 9.08079 5.76012 8.98298 5.85792C8.88518 5.95573 8.80783 6.07203 8.75545 6.20005C8.70308 6.32807 8.67672 6.46523 8.67792 6.60354C8.67913 6.74186 8.70786 6.87854 8.76245 7.00563C8.81705 7.13272 8.8964 7.24766 8.99589 7.34375L14.1521 12.5L8.99589 17.6563C8.80615 17.8527 8.70115 18.1158 8.70352 18.389C8.7059 18.6621 8.81545 18.9233 9.00858 19.1165C9.20172 19.3096 9.46298 19.4192 9.7361 19.4215C10.0092 19.4239 10.2723 19.3189 10.4688 19.1292L16.3615 13.2365Z" fill="white"/>
</g>
<defs>
<clipPath id="clip0_27_29">
<rect width="25" height="25" rx="4" transform="matrix(-1 0 0 1 25 0)" fill="white"/>
</clipPath>
</defs>
</svg>
