<svg width="49" height="49" viewBox="0 0 49 49" fill="none" xmlns="http://www.w3.org/2000/svg">
<path d="M12.25 34.7083C14.5051 34.7083 16.3333 36.5365 16.3333 38.7917C16.3333 41.0468 14.5051 42.875 12.25 42.875C9.9948 42.875 8.16663 41.0468 8.16663 38.7917C8.16663 36.5365 9.9948 34.7083 12.25 34.7083Z" fill="#E4E4E4"/>
<path d="M36.75 20.4167C39.0051 20.4167 40.8333 22.2448 40.8333 24.5C40.8333 26.7552 39.0051 28.5833 36.75 28.5833C34.4948 28.5833 32.6666 26.7552 32.6666 24.5C32.6666 22.2448 34.4948 20.4167 36.75 20.4167Z" fill="#E4E4E4"/>
<path d="M28.5833 10.2083C28.5833 7.95317 26.7551 6.125 24.5 6.125C22.2448 6.125 20.4166 7.95317 20.4166 10.2083C20.4166 12.4635 22.2448 14.2917 24.5 14.2917C26.7551 14.2917 28.5833 12.4635 28.5833 10.2083Z" fill="#E4E4E4"/>
<path d="M8.16663 10.2083L20.4166 10.2083M20.4166 10.2083C20.4166 12.4635 22.2448 14.2917 24.5 14.2917C26.7551 14.2917 28.5833 12.4635 28.5833 10.2083M20.4166 10.2083C20.4166 7.95317 22.2448 6.125 24.5 6.125C26.7551 6.125 28.5833 7.95317 28.5833 10.2083M28.5833 10.2083L40.8333 10.2083M8.16663 24.5H32.6666M32.6666 24.5C32.6666 26.7552 34.4948 28.5833 36.75 28.5833C39.0051 28.5833 40.8333 26.7552 40.8333 24.5C40.8333 22.2448 39.0051 20.4167 36.75 20.4167C34.4948 20.4167 32.6666 22.2448 32.6666 24.5ZM16.3333 38.7917H40.8333M16.3333 38.7917C16.3333 36.5365 14.5051 34.7083 12.25 34.7083C9.9948 34.7083 8.16663 36.5365 8.16663 38.7917C8.16663 41.0468 9.9948 42.875 12.25 42.875C14.5051 42.875 16.3333 41.0468 16.3333 38.7917Z" stroke="black" stroke-width="3" stroke-linecap="round" stroke-linejoin="round"/>
</svg>
